<svg xmlns="http://www.w3.org/2000/svg" viewBox="0 0 100 100">
  <defs>
    <style>
      .a {
        fill: #fe0;
      }
    </style>
  </defs>
  <svg x="23.36" y="8">
    <g transform="scale(3 3)">
      <g>
        <ellipse class="a" cx="8.88" cy="17.73" rx="8.0" ry="8.0" />
        <path
          d="M8.88,12.66a4.92,4.92,0,0,1,4.74,5.07,4.92,4.92,0,0,1-4.74,5.06,4.92,4.92,0,0,1-4.75-5.06,4.92,4.92,0,0,1,4.75-5.07m0-4.13A9,9,0,0,0,0,17.73a9,9,0,0,0,8.88,9.19,9,9,0,0,0,8.87-9.19,9,9,0,0,0-8.87-9.2Z" />
      </g>
      <g>
        <polyline class="a" points="15.15 14.98 8.94 2.07 2.57 15.02" />
        <path
          d="M4.43,15.93.72,14.11l6.37-13A2.2,2.2,0,0,1,9,0,2.06,2.06,0,0,1,10.8,1.17L17,14.08l-3.73,1.79L8.92,6.79Z" />
      </g>
    </g>
  </svg>
</svg>